<?xml version="1.0" encoding="utf-8" ?>
<svg baseProfile="tiny" height="100%" shape-rendering="crispEdges" version="1.2" viewBox="0 0 1000 1000" width="100%" xmlns="http://www.w3.org/2000/svg" xmlns:ev="http://www.w3.org/2001/xml-events" xmlns:xlink="http://www.w3.org/1999/xlink"><defs /><path d="M 109.1430,125.5800 C 123.6840,124.4300 138.2210,120.7580 152.6840,122.6590" fill="none" stroke="black" stroke-width="4" /><path d="M 152.6840,122.6590 C 165.5840,124.3560 177.7430,130.5500 187.2050,139.4790" fill="none" stroke="black" stroke-width="4" /><path d="M 187.2050,139.4790 C 196.6670,148.4080 203.4820,159.9840 207.4020,172.3900" fill="none" stroke="black" stroke-width="4" /><path d="M 207.4020,172.3900 C 209.6550,179.5260 210.9830,187.1000 209.9200,194.5060" fill="none" stroke="black" stroke-width="4" /><path d="M 209.9200,194.5060 C 208.9350,201.3510 205.9400,207.7880 202.1020,213.5400" fill="none" stroke="black" stroke-width="4" /><path d="M 202.1020,213.5400 C 192.6130,227.7690 178.0500,238.0650 162.3590,244.8710" fill="none" stroke="black" stroke-width="4" /><path d="M 162.3590,244.8710 C 153.8250,248.5740 144.7880,251.3560 135.5030,251.9160" fill="none" stroke="black" stroke-width="4" /><path d="M 135.5030,251.9160 C 127.9980,252.3670 120.4060,251.3470 113.2880,248.9300" fill="none" stroke="black" stroke-width="4" /><path d="M 113.2880,248.9300 C 103.0920,245.4660 93.9890,239.1980 86.3200,231.6370" fill="none" stroke="black" stroke-width="4" /><path d="M 86.3200,231.6370 C 79.2710,224.6830 73.2810,216.4880 69.8730,207.1900" fill="none" stroke="black" stroke-width="4" /><path d="M 69.8730,207.1900 C 63.1800,188.9330 67.1820,168.0110 76.7790,151.0960" fill="none" stroke="black" stroke-width="4" /><path d="M 76.7790,151.0960 C 83.7720,138.7730 95.1440,128.3730 109.0040,125.4340" fill="none" stroke="black" stroke-width="4" /><path d="M 140.8430,11.8520 C 152.2680,23.0070 177.3040,30.9510 190.3260,40.5000" fill="none" stroke="black" stroke-width="4" /><path d="M 190.3260,40.5000 C 204.6200,24.5440 210.7230,13.7750 228.0900,1.2260" fill="none" stroke="black" stroke-width="4" /><path d="M 228.0900,1.2260 C 227.0180,21.7700 222.6730,33.9110 214.2000,52.6540" fill="none" stroke="black" stroke-width="4" /><path d="M 214.2000,52.6540 C 230.4250,56.5870 246.0560,68.7100 262.2770,72.6430" fill="none" stroke="black" stroke-width="4" /><path d="M 262.2770,72.6430 C 247.2150,84.4060 228.6330,79.0370 209.8590,82.6050" fill="none" stroke="black" stroke-width="4" /><path d="M 209.8590,82.6050 C 206.3820,98.1400 204.1990,123.4590 205.3190,139.3370" fill="none" stroke="black" stroke-width="4" /><path d="M 205.3190,139.3370 C 195.1450,125.4640 183.6680,104.7720 180.7770,87.8130" fill="none" stroke="black" stroke-width="4" /><path d="M 180.7770,87.8130 C 161.2570,86.6410 146.1130,93.4170 127.4220,99.1510" fill="none" stroke="black" stroke-width="4" /><path d="M 127.4220,99.1510 C 134.8230,87.6010 144.6410,77.6080 156.0660,70.0080" fill="none" stroke="black" stroke-width="4" /><path d="M 156.0660,70.0080 C 157.1210,69.3050 158.2750,68.5150 158.5970,67.2860" fill="none" stroke="black" stroke-width="4" /><path d="M 158.5970,67.2860 C 158.8010,66.5180 167.0570,59.0690 166.8880,58.2920" fill="none" stroke="black" stroke-width="4" /><path d="M 166.8880,58.2920 C 162.5170,37.7950 146.7340,31.9570 140.8440,11.8470" fill="none" stroke="black" stroke-width="4" /><path d="M 7.9800,0.8400 C 41.9670,1.0870 75.9370,3.1930 109.6940,7.1430" fill="none" stroke="black" stroke-width="4" /><path d="M 109.6940,7.1430 C 110.1500,7.1950 110.6320,7.2600 110.9790,7.5600" fill="none" stroke="black" stroke-width="4" /><path d="M 110.9790,7.5600 C 111.5260,8.0240 111.5300,8.8490 111.4910,9.5650" fill="none" stroke="black" stroke-width="4" /><path d="M 111.4910,9.5650 C 109.5720,45.0110 107.6540,80.4560 105.7350,115.8980" fill="none" stroke="black" stroke-width="4" /><path d="M 105.7350,115.8980 C 105.6790,116.9010 105.5830,118.0080 104.8710,118.7150" fill="none" stroke="black" stroke-width="4" /><path d="M 104.8710,118.7150 C 104.2460,119.3360 103.3130,119.4920 102.4400,119.6090" fill="none" stroke="black" stroke-width="4" /><path d="M 102.4400,119.6090 C 70.0670,124.0190 37.1480,120.5290 4.8580,115.5240" fill="none" stroke="black" stroke-width="4" /><path d="M 4.8580,115.5240 C 4.1160,115.4070 3.3170,115.2640 2.7920,114.7300" fill="none" stroke="black" stroke-width="4" /><path d="M 2.7920,114.7300 C 2.1930,114.1180 2.1190,113.1800 2.0840,112.3250" fill="none" stroke="black" stroke-width="4" /><path d="M 2.0840,112.3250 C 1.8670,107.2770 1.6800,102.2290 1.4980,97.1800" fill="none" stroke="black" stroke-width="4" /><path d="M 1.4980,97.1800 C 0.3360,65.0030 -0.8140,32.5780 4.2600,0.7790" fill="none" stroke="black" stroke-width="4" /><path d="M 4.2600,0.7790 C 5.6010,1.5130 7.2070,1.7430 8.7000,1.4170" fill="none" stroke="black" stroke-width="4" /></svg>